General                          : ChattChitto RG - Movies [R2L]
==========
Complete name                    : The Way Back 2010 720p BRRip H264 [ChattChitto RG]
Format                           : MPEG-4
Format profile                   : Base Media
Codec ID                         : isom
File size                        : 2.47 GiB
Duration                         : 2h 13mn
Overall bit rate                 : 2 657 Kbps
Encoded date                     : UTC 2011-04-04 21:18:17

Video
==========
ID                               : 1
Format                           : AVC
Format/Info                      : Advanced Video Codec
Format profile                   : High@L4.1
Format settings, CABAC           : Yes
Format settings, ReFrames        : 4 frames
Codec ID                         : avc1
Codec ID/Info                    : Advanced Video Coding
Duration                         : 2h 13mn
Bit rate mode                    : Variable
Bit rate                         : 2 300 Kbps
Maximum bit rate                 : 19.0 Mbps
Width                            : 1 280 pixels
Height                           : 544 pixels
Display aspect ratio             : 2.35:1
Frame rate mode                  : Constant
Frame rate                       : 23.976 fps
Color space                      : YUV
Chroma subsampling               : 4:2:0
Bit depth                        : 8 bits
Scan type                        : Progressive
Bits/(Pixel*Frame)               : 0.138
Stream size                      : 2.14 GiB (87%)
Writing library                  : x264 core 114 r1913 5fd3dce
Encoded date                     : UTC 2011-04-04 12:22:45

Audio
==========
ID                               : 2
Format                           : AAC
Format/Info                      : Advanced Audio Codec
Format profile                   : LC
Codec ID                         : 40
Duration                         : 2h 13mn
Bit rate mode                    : Variable
Bit rate                         : 352.8 Kbps
Maximum bit rate                 : 624 Kbps
Channel(s)                       : 6 channels
Channel positions                : Front: L C R, Side: L R, LFE
Sampling rate                    : 48.0 KHz
Compression mode                 : Lossy
Stream size                      : 337 MiB (13%)
Encoded date                     : UTC 2011-04-04 21:18:52

Subtitles                        : English | Hardcoded Non-English Parts


----------------------------------------------------
IMDB Link: http://www.imdb.com/title/tt1023114/
----------------------------------------------------



Screen Shots:
==============    
http://chattchitto.net/chattchittorg/movies/brrip/2011/way_back/1.png 
http://chattchitto.net/chattchittorg/movies/brrip/2011/way_back/2.png 
http://chattchitto.net/chattchittorg/movies/brrip/2011/way_back/3.png 
http://chattchitto.net/chattchittorg/movies/brrip/2011/way_back/4.png 
http://chattchitto.net/chattchittorg/movies/brrip/2011/way_back/5.png 
http://chattchitto.net/chattchittorg/movies/brrip/2011/way_back/6.png 
http://chattchitto.net/chattchittorg/movies/brrip/2011/way_back/7.png



ScreenShots Comparison:
=========================  
http://screenshotcomparison.com/comparison/41326



Plot:
======
A small group of multi-national prisoners escapes from a Siberian gulag in 1940 and travel in a journey over thousands of miles across five hostile countries.



Release Info:
==============
original name .... : The Way Back 2010 720p BRRip H264 [ChattChitto RG]
ripper.............: CBGB
encoder............: Recalled2Life (R2L)
video codec........: H264/.MP4
video bitrate......: 2300 Kbps
audio codec........: AAC-LC
aspect ratio.......: 2.35:1
resolution.........: 1280 x 544
genre..............: Adventure | Drama
runtime............: 2h 13mn
language...........: English
rating.............: PG-13
subtitles..........: English | Hardcoded Non-English Parts
sample.............: Yes
2ch Audio..........: 2ch Audio for XBox Viewers
Compatibility .....: XBox | PS3 | WD Live



Source:
========
The.Way.Back.1080p.Bluray.x264-CBGB  THANKS!



Notes:
=======
ChattChitto RG Encourages Burning this Film with ConvertXtoDVD and Playing with VLC media player.
XBox 360 | PS3 | WD Live - Compatible 
Enhanced for your viewing pleasure ;)